<svg width="131" height="32" viewBox="0 0 131 32" fill="none" xmlns="http://www.w3.org/2000/svg">
<g clip-path="url(#clip0_102_192)">
<path d="M39.2809 15.5127C39.2809 11.3985 37.6465 7.45275 34.7373 4.54356C31.8281 1.63437 27.8824 5.39515e-07 23.7682 0C19.654 -5.39514e-07 15.7083 1.63437 12.7991 4.54356C9.88986 7.45275 8.25549 11.3985 8.25549 15.5127H13.1033C14.7097 15.5127 15.9625 14.1665 16.5509 12.6717C16.9372 11.6903 17.5234 10.7884 18.2836 10.0281C19.7382 8.57352 21.7111 7.75634 23.7682 7.75634C25.8253 7.75634 27.7982 8.57352 29.2528 10.0281C30.7074 11.4827 31.5245 13.4556 31.5245 15.5127H39.2809Z" fill="url(#paint0_linear_102_192)"/>
<path d="M30.3445 21.4501C31.1241 19.568 31.5254 17.5508 31.5254 15.5137H39.2809C39.2809 24.0811 32.3356 31.0263 23.7682 31.0263C22.4265 31.0263 21.1245 30.856 19.8829 30.5358C20.5854 30.3548 21.2759 30.1243 21.9491 29.8455C23.8312 29.0659 25.5413 27.9233 26.9818 26.4828C28.4223 25.0423 29.565 23.3322 30.3445 21.4501Z" fill="#DE43F9"/>
<path d="M0.5 15.5117C0.5 17.5489 0.901247 19.5661 1.68083 21.4482C2.46042 23.3303 3.60307 25.0404 5.04356 26.4809C6.48404 27.9213 8.19415 29.064 10.0762 29.8436C11.9583 30.6232 13.9755 31.0244 16.0127 31.0244C18.0498 31.0244 20.067 30.6232 21.9491 29.8436C23.8312 29.064 25.5413 27.9213 26.9818 26.4809C28.4223 25.0404 29.5649 23.3303 30.3445 21.4482C31.1241 19.5661 31.5254 17.5489 31.5254 15.5117H26.6776C25.0712 15.5117 23.8184 16.8579 23.23 18.3526C23.2133 18.3952 23.1961 18.4376 23.1786 18.48C22.7888 19.421 22.2175 20.2761 21.4972 20.9963C20.777 21.7165 19.9219 22.2879 18.9809 22.6777C18.0399 23.0675 17.0313 23.2681 16.0127 23.2681C14.9941 23.2681 13.9855 23.0675 13.0445 22.6777C12.1034 22.2879 11.2484 21.7165 10.5281 20.9963C9.80787 20.2761 9.23655 19.421 8.84676 18.48C8.45696 17.5389 8.25634 16.5303 8.25634 15.5117H0.5Z" fill="url(#paint1_linear_102_192)"/>
<path d="M0.501587 15.5127C0.501587 6.94524 7.44683 0 16.0142 0C17.3556 0 18.6572 0.170246 19.8987 0.490323C17.2348 1.17657 14.7774 2.56535 12.7991 4.54357C9.88992 7.45273 8.25557 11.3985 8.25557 15.5127H0.501587Z" fill="#F83758"/>
<path d="M60.3504 23.4671C60.0264 23.3351 59.7504 23.1311 59.5224 22.8551C59.2944 22.5791 59.1024 22.2791 58.9464 21.9551C58.7904 21.6191 58.6644 21.2711 58.5684 20.9111C58.4724 20.5391 58.3944 20.2091 58.3344 19.9211C58.2984 19.7651 58.2564 19.5251 58.2084 19.2011C58.1724 18.8651 58.1244 18.4871 58.0644 18.0671C58.0164 17.6471 57.9684 17.2091 57.9204 16.7531C57.8724 16.2971 57.8184 15.8651 57.7584 15.4571L57.6324 14.3231C57.5964 13.9991 57.5724 13.7531 57.5604 13.5851L55.8144 20.6771L55.7244 20.8391C55.6764 20.9231 55.6164 21.0191 55.5444 21.1271C55.4844 21.2351 55.4064 21.3371 55.3104 21.4331C55.2264 21.5291 55.1364 21.6011 55.0404 21.6491C54.9564 21.6851 54.8664 21.6911 54.7704 21.6671C54.6864 21.6431 54.6084 21.5651 54.5364 21.4331L50.7384 13.8371L49.7304 21.4331C49.7064 21.5531 49.6524 21.6371 49.5684 21.6851C49.4844 21.7211 49.3944 21.7211 49.2984 21.6851C49.2144 21.6371 49.1364 21.5711 49.0644 21.4871C48.9924 21.4031 48.9624 21.3011 48.9744 21.1811L50.2524 11.8211C50.2524 11.7731 50.2824 11.7191 50.3424 11.6591C50.4144 11.5991 50.4924 11.5511 50.5764 11.5151C50.6604 11.4791 50.7444 11.4611 50.8284 11.4611C50.9124 11.4491 50.9664 11.4791 50.9904 11.5511L54.9864 20.4071L57.3084 11.5511C57.3204 11.5271 57.3744 11.4551 57.4704 11.3351C57.5664 11.2031 57.6744 11.0831 57.7944 10.9751C57.9144 10.8671 58.0224 10.7891 58.1184 10.7411C58.2264 10.6931 58.2984 10.7171 58.3344 10.8131L58.5684 11.8211C58.6044 12.4811 58.6344 13.2491 58.6584 14.1251C58.6824 15.0011 58.7364 15.9011 58.8204 16.8251C58.9044 17.7491 59.0424 18.6551 59.2344 19.5431C59.4384 20.4311 59.7324 21.2291 60.1164 21.9371C60.1524 21.9851 60.2004 22.0511 60.2604 22.1351C60.3204 22.2191 60.3924 22.2971 60.4764 22.3691C60.5604 22.4411 60.6384 22.5071 60.7104 22.5671C60.7944 22.6391 60.8484 22.6811 60.8724 22.6931C60.9684 22.7411 61.0944 22.7471 61.2504 22.7111C61.4184 22.6751 61.5924 22.6451 61.7724 22.6211C61.9524 22.6091 62.1204 22.6211 62.2764 22.6571C62.4324 22.7051 62.5524 22.8011 62.6364 22.9451C62.7204 23.1131 62.7264 23.2391 62.6544 23.3231C62.5944 23.4191 62.4924 23.4911 62.3484 23.5391C62.2044 23.5871 62.0304 23.6111 61.8264 23.6111C61.6344 23.6231 61.4424 23.6231 61.2504 23.6111C61.0584 23.5991 60.8784 23.5751 60.7104 23.5391C60.5544 23.5151 60.4344 23.4911 60.3504 23.4671ZM64.2675 23.4671C64.0395 23.2871 63.8655 23.0411 63.7455 22.7291C63.6375 22.4171 63.5775 22.1231 63.5655 21.8471C63.5655 21.5711 63.6015 21.3551 63.6735 21.1991C63.7575 21.0431 63.8715 21.0371 64.0155 21.1811C63.9915 21.7091 64.0875 22.1111 64.3035 22.3871C64.5195 22.6511 64.7775 22.8191 65.0775 22.8911C65.3775 22.9631 65.7015 22.9451 66.0495 22.8371C66.3975 22.7291 66.6915 22.5611 66.9315 22.3331C67.1835 22.1051 67.3575 21.8291 67.4535 21.5051C67.5495 21.1691 67.4955 20.8151 67.2915 20.4431C67.0515 20.1431 66.7695 19.8611 66.4455 19.5971C66.1335 19.3331 65.8155 19.0691 65.4915 18.8051C65.1675 18.5411 64.8555 18.2711 64.5555 17.9951C64.2555 17.7191 63.9915 17.4251 63.7635 17.1131C63.7395 17.0891 63.7275 17.0531 63.7275 17.0051C63.7275 16.9451 63.7395 16.9031 63.7635 16.8791C63.8355 16.7951 63.9315 16.6631 64.0515 16.4831C64.1715 16.2911 64.3155 16.0751 64.4835 15.8351C64.6515 15.5951 64.8255 15.3491 65.0055 15.0971C65.1975 14.8451 65.3775 14.6051 65.5455 14.3771C65.7135 14.1371 65.8575 13.9271 65.9775 13.7471C66.1095 13.5551 66.2115 13.4171 66.2835 13.3331C66.4155 13.1531 66.5535 13.0511 66.6975 13.0271C66.8415 13.0031 67.0395 13.0211 67.2915 13.0811C67.2795 13.1291 67.2435 13.2191 67.1835 13.3511C67.1235 13.4711 67.0755 13.5491 67.0395 13.5851C66.9675 13.7051 66.8235 13.9091 66.6075 14.1971C66.3915 14.4851 66.1575 14.7971 65.9055 15.1331C65.6655 15.4571 65.4375 15.7631 65.2215 16.0511C65.0175 16.3271 64.8735 16.5191 64.7895 16.6271C64.7055 16.7351 64.7295 16.8671 64.8615 17.0231C65.0055 17.1791 65.1975 17.3591 65.4375 17.5631C65.6895 17.7551 65.9775 17.9711 66.3015 18.2111C66.6255 18.4391 66.9315 18.6911 67.2195 18.9671C67.5075 19.2431 67.7475 19.5371 67.9395 19.8491C68.1435 20.1611 68.2515 20.4971 68.2635 20.8571C68.2875 21.2051 68.1855 21.5771 67.9575 21.9731C67.7415 22.3571 67.3515 22.7651 66.7875 23.1971C66.6195 23.3411 66.4275 23.4611 66.2115 23.5571C66.0075 23.6531 65.7915 23.7131 65.5635 23.7371C65.3475 23.7731 65.1255 23.7731 64.8975 23.7371C64.6695 23.7011 64.4595 23.6111 64.2675 23.4671ZM77.2958 23.4671C76.9238 23.1911 76.6778 22.8611 76.5578 22.4771C76.4378 22.0811 76.3478 21.6491 76.2878 21.1811C76.2998 21.0491 76.3178 20.8391 76.3418 20.5511C76.3778 20.2631 76.4138 19.9391 76.4498 19.5791C76.4978 19.2071 76.5338 18.8171 76.5578 18.4091C76.5938 18.0011 76.6298 17.6171 76.6658 17.2571C76.7018 16.8851 76.7258 16.5551 76.7378 16.2671C76.7618 15.9671 76.7798 15.7511 76.7918 15.6191C76.8038 15.5351 76.8098 15.3971 76.8098 15.2051V13.9991C76.8098 13.8071 76.8038 13.6691 76.7918 13.5851L77.0618 13.3331L81.6158 11.8211H82.1198C82.1678 11.9531 82.1738 12.0971 82.1378 12.2531C82.1018 12.4091 82.0058 12.5111 81.8498 12.5591L78.0698 14.1071L77.8178 14.3411C77.8058 14.3531 77.7878 14.4611 77.7638 14.6651C77.7518 14.8571 77.7278 15.0911 77.6918 15.3671C77.6678 15.6311 77.6378 15.9011 77.6018 16.1771C77.5778 16.4531 77.5658 16.6871 77.5658 16.8791C77.5658 16.9151 77.5598 16.9991 77.5478 17.1311C77.5478 17.2511 77.5478 17.3771 77.5478 17.5091C77.5478 17.6411 77.5478 17.7671 77.5478 17.8871C77.5598 18.0071 77.5658 18.0911 77.5658 18.1391L81.8498 15.8711C81.9218 15.8231 81.9758 15.8291 82.0118 15.8891C82.0478 15.9491 82.0658 16.0271 82.0658 16.1231C82.0658 16.2191 82.0478 16.3211 82.0118 16.4291C81.9758 16.5251 81.9218 16.5911 81.8498 16.6271C81.6938 16.7351 81.4958 16.8611 81.2558 17.0051C81.0158 17.1371 80.7638 17.2811 80.4998 17.4371C80.2478 17.5811 79.9898 17.7251 79.7258 17.8691C79.4738 18.0131 79.2398 18.1451 79.0238 18.2651C78.8198 18.3731 78.6518 18.4691 78.5198 18.5531C78.3998 18.6251 78.3338 18.6611 78.3218 18.6611H77.2958V21.9371C77.2958 22.3811 77.3978 22.6631 77.6018 22.7831C77.8058 22.9151 78.0578 22.9451 78.3578 22.8731C78.6698 22.8011 78.9998 22.6571 79.3478 22.4411C79.7078 22.2251 80.0438 21.9971 80.3558 21.7571C80.6798 21.5171 80.9558 21.2951 81.1838 21.0911C81.4118 20.8751 81.5558 20.7371 81.6158 20.6771C81.6398 20.4371 81.6938 20.2391 81.7778 20.0831C81.8258 19.9391 81.8978 19.8431 81.9938 19.7951C82.0898 19.7351 82.2158 19.7771 82.3718 19.9211C82.4198 20.2211 82.3658 20.5511 82.2098 20.9111C82.0658 21.2591 81.8498 21.6011 81.5618 21.9371C81.2858 22.2611 80.9558 22.5611 80.5718 22.8371C80.1998 23.1131 79.8158 23.3291 79.4198 23.4851C79.0238 23.6531 78.6398 23.7431 78.2678 23.7551C77.8958 23.7671 77.5718 23.6711 77.2958 23.4671ZM84.0052 23.4671C84.0172 23.3351 84.0232 23.1131 84.0232 22.8011V20.8211C84.0232 20.5091 84.0172 20.2871 84.0052 20.1551C83.9932 20.1071 83.9752 19.9871 83.9512 19.7951C83.9272 19.6031 83.8972 19.3751 83.8612 19.1111C83.8252 18.8351 83.7892 18.5531 83.7532 18.2651C83.7172 17.9771 83.6752 17.7071 83.6272 17.4551C83.5912 17.1911 83.5612 16.9631 83.5372 16.7711C83.5132 16.5671 83.4952 16.4291 83.4832 16.3571C83.4712 16.2251 83.4652 16.0871 83.4652 15.9431C83.4772 15.7991 83.5072 15.6731 83.5552 15.5651C83.6032 15.4571 83.6752 15.3851 83.7712 15.3491C83.8792 15.3011 84.0352 15.3071 84.2392 15.3671C84.2512 15.5711 84.2692 15.8111 84.2932 16.0871C84.3292 16.3631 84.3652 16.6511 84.4012 16.9511C84.4372 17.2511 84.4852 17.5511 84.5452 17.8511C84.6052 18.1391 84.6772 18.4091 84.7612 18.6611C84.8812 18.2891 85.0012 17.9651 85.1212 17.6891C85.2532 17.4131 85.3972 17.1611 85.5532 16.9331C85.7092 16.7051 85.8832 16.4831 86.0752 16.2671C86.2672 16.0511 86.5012 15.8351 86.7772 15.6191C87.1132 15.3311 87.3952 15.2171 87.6232 15.2771C87.8512 15.3251 88.0372 15.4931 88.1812 15.7811C88.3372 16.0571 88.4632 16.4171 88.5592 16.8611C88.6672 17.2931 88.7572 17.7551 88.8292 18.2471C88.9012 18.7391 88.9792 19.2191 89.0632 19.6871C89.1472 20.1551 89.2492 20.5631 89.3692 20.9111C89.5012 21.2591 89.6632 21.5111 89.8552 21.6671C90.0472 21.8231 90.2872 21.8291 90.5752 21.6851C90.6592 21.9491 90.6712 22.1411 90.6112 22.2611C90.5512 22.3811 90.4432 22.4471 90.2872 22.4591C90.1312 22.4711 89.9512 22.4351 89.7472 22.3511C89.5552 22.2551 89.3572 22.1291 89.1532 21.9731C88.9612 21.8171 88.7872 21.6251 88.6312 21.3971C88.4752 21.1691 88.3612 20.9291 88.2892 20.6771C88.2652 20.5091 88.2352 20.2271 88.1992 19.8311C88.1632 19.4231 88.1152 18.9911 88.0552 18.5351C88.0072 18.0791 87.9172 17.6291 87.7852 17.1851C87.6652 16.7411 87.4972 16.3871 87.2812 16.1231L86.2552 17.1131C86.2312 17.1611 86.1592 17.3411 86.0392 17.6531C85.9312 17.9531 85.8112 18.3071 85.6792 18.7151C85.5472 19.1231 85.4152 19.5371 85.2832 19.9571C85.1512 20.3651 85.0612 20.6951 85.0132 20.9471C84.9892 21.0311 84.9592 21.1931 84.9232 21.4331C84.8992 21.6611 84.8692 21.9131 84.8332 22.1891C84.8092 22.4651 84.7912 22.7231 84.7792 22.9631C84.7672 23.2031 84.7612 23.3711 84.7612 23.4671C84.6772 23.6471 84.5512 23.7371 84.3832 23.7371C84.2152 23.7371 84.0892 23.6471 84.0052 23.4671ZM93.134 28.0031C92.834 27.7151 92.672 27.3491 92.648 26.9051C92.636 26.4611 92.714 25.9811 92.882 25.4651C93.05 24.9611 93.278 24.4391 93.566 23.8991C93.866 23.3591 94.172 22.8431 94.484 22.3511C94.796 21.8471 95.084 21.3851 95.348 20.9651C95.612 20.5331 95.81 20.1851 95.942 19.9211C96.002 19.7651 96.014 19.5491 95.978 19.2731C95.954 18.9851 95.9 18.6911 95.816 18.3911C95.744 18.0911 95.666 17.8211 95.582 17.5811C95.51 17.3411 95.456 17.1851 95.42 17.1131L95.168 17.3831L92.396 22.1891C92.372 22.2131 92.33 22.2491 92.27 22.2971C92.21 22.3451 92.138 22.3931 92.054 22.4411C91.97 22.4891 91.886 22.5371 91.802 22.5851C91.73 22.6331 91.67 22.6691 91.622 22.6931C91.31 22.8251 91.082 22.8131 90.938 22.6571C90.794 22.5011 90.716 22.2491 90.704 21.9011C90.704 21.5531 90.758 21.1331 90.866 20.6411C90.974 20.1491 91.13 19.6331 91.334 19.0931C91.55 18.5411 91.796 17.9891 92.072 17.4371C92.36 16.8851 92.672 16.3751 93.008 15.9071C93.344 15.4271 93.692 15.0191 94.052 14.6831C94.424 14.3351 94.79 14.1071 95.15 13.9991C95.342 14.0591 95.438 14.1371 95.438 14.2331C95.45 14.3171 95.402 14.4191 95.294 14.5391C95.198 14.6471 95.066 14.7671 94.898 14.8991C94.73 15.0191 94.55 15.1451 94.358 15.2771C94.178 15.3971 94.01 15.5111 93.854 15.6191C93.71 15.7271 93.614 15.8171 93.566 15.8891C93.326 16.3931 93.08 16.8791 92.828 17.3471C92.588 17.8031 92.366 18.2591 92.162 18.7151C91.97 19.1711 91.82 19.6391 91.712 20.1191C91.604 20.5991 91.574 21.1211 91.622 21.6851L91.892 21.4331C92.24 21.0011 92.558 20.5091 92.846 19.9571C93.146 19.4051 93.416 18.8471 93.656 18.2831C93.896 17.7191 94.118 17.1851 94.322 16.6811C94.538 16.1771 94.73 15.7571 94.898 15.4211C95.066 15.0731 95.234 14.8391 95.402 14.7191C95.57 14.5991 95.732 14.6591 95.888 14.8991C96.044 15.1271 96.212 15.5651 96.392 16.2131C96.572 16.8491 96.758 17.7431 96.95 18.8951C96.998 18.8591 97.088 18.7931 97.22 18.6971C97.364 18.5891 97.514 18.4811 97.67 18.3731C97.838 18.2651 97.994 18.1691 98.138 18.0851C98.294 17.9891 98.396 17.9231 98.444 17.8871C98.504 17.8751 98.594 17.8691 98.714 17.8691C98.834 17.8691 98.918 17.8751 98.966 17.8871C98.918 18.0671 98.804 18.2711 98.624 18.4991C98.456 18.7271 98.264 18.9431 98.048 19.1471C97.844 19.3511 97.652 19.5311 97.472 19.6871C97.304 19.8311 97.214 19.9091 97.202 19.9211C97.202 20.0171 97.196 20.1611 97.184 20.3531C97.184 20.5451 97.172 20.7731 97.148 21.0371C97.136 21.2891 97.124 21.5531 97.112 21.8291C97.1 22.0931 97.082 22.3511 97.058 22.6031C97.034 22.8551 97.01 23.0771 96.986 23.2691L96.95 23.7191C96.938 23.8391 96.866 24.0671 96.734 24.4031C96.614 24.7391 96.458 25.1171 96.266 25.5371C96.086 25.9571 95.876 26.3771 95.636 26.7971C95.396 27.2171 95.138 27.5651 94.862 27.8411C94.598 28.1171 94.316 28.2851 94.016 28.3451C93.716 28.4051 93.422 28.2911 93.134 28.0031ZM93.908 25.5011C93.896 25.5731 93.884 25.6991 93.872 25.8791C93.872 26.0711 93.872 26.2751 93.872 26.4911C93.872 26.7071 93.872 26.9111 93.872 27.1031C93.884 27.3071 93.896 27.4391 93.908 27.4991C94.412 27.2831 94.832 26.9231 95.168 26.4191C95.516 25.9271 95.78 25.3691 95.96 24.7451C96.14 24.1211 96.242 23.4851 96.266 22.8371C96.302 22.2011 96.272 21.6431 96.176 21.1631C95.9 21.4031 95.63 21.6971 95.366 22.0451C95.114 22.3931 94.886 22.7591 94.682 23.1431C94.478 23.5391 94.31 23.9411 94.178 24.3491C94.046 24.7571 93.956 25.1411 93.908 25.5011ZM98.7234 22.9451C98.7114 22.9211 98.6874 22.8491 98.6514 22.7291C98.6274 22.6211 98.5974 22.5011 98.5614 22.3691C98.5374 22.2251 98.5134 22.0931 98.4894 21.9731C98.4774 21.8411 98.4714 21.7451 98.4714 21.6851V14.6111C98.4714 14.5151 98.5134 14.4431 98.5974 14.3951C98.6814 14.3471 98.7774 14.3231 98.8854 14.3231C99.0054 14.3231 99.1074 14.3291 99.1914 14.3411C99.2874 14.3411 99.3414 14.3411 99.3534 14.3411V22.1891C99.3534 22.3571 99.4074 22.4951 99.5154 22.6031C99.6234 22.7111 99.7494 22.7951 99.8934 22.8551C100.037 22.9151 100.187 22.9511 100.343 22.9631C100.499 22.9871 100.631 22.9811 100.739 22.9451C100.871 23.1491 100.865 23.3111 100.721 23.4311C100.589 23.5631 100.391 23.6351 100.127 23.6471C99.8754 23.6591 99.6114 23.6111 99.3354 23.5031C99.0594 23.3951 98.8554 23.2091 98.7234 22.9451ZM98.2194 12.0551C98.2194 11.7791 98.3274 11.6051 98.5434 11.5331C98.7714 11.4491 99.0054 11.4551 99.2454 11.5511V12.3251C99.2094 12.3371 99.1554 12.3491 99.0834 12.3611C99.0114 12.3611 98.9334 12.3611 98.8494 12.3611C98.7654 12.3611 98.6874 12.3611 98.6154 12.3611C98.5434 12.3491 98.4954 12.3371 98.4714 12.3251C98.4354 12.3131 98.3814 12.2771 98.3094 12.2171C98.2494 12.1451 98.2194 12.0911 98.2194 12.0551ZM102.163 23.4671C102.175 23.3351 102.181 23.1131 102.181 22.8011V20.8211C102.181 20.5091 102.175 20.2871 102.163 20.1551C102.151 20.1071 102.133 19.9871 102.109 19.7951C102.085 19.6031 102.055 19.3751 102.019 19.1111C101.983 18.8351 101.947 18.5531 101.911 18.2651C101.875 17.9771 101.833 17.7071 101.785 17.4551C101.749 17.1911 101.719 16.9631 101.695 16.7711C101.671 16.5671 101.653 16.4291 101.641 16.3571C101.629 16.2251 101.623 16.0871 101.623 15.9431C101.635 15.7991 101.665 15.6731 101.713 15.5651C101.761 15.4571 101.833 15.3851 101.929 15.3491C102.037 15.3011 102.193 15.3071 102.397 15.3671C102.409 15.5711 102.427 15.8111 102.451 16.0871C102.487 16.3631 102.523 16.6511 102.559 16.9511C102.595 17.2511 102.643 17.5511 102.703 17.8511C102.763 18.1391 102.835 18.4091 102.919 18.6611C103.039 18.2891 103.159 17.9651 103.279 17.6891C103.411 17.4131 103.555 17.1611 103.711 16.9331C103.867 16.7051 104.041 16.4831 104.233 16.2671C104.425 16.0511 104.659 15.8351 104.935 15.6191C105.271 15.3311 105.553 15.2171 105.781 15.2771C106.009 15.3251 106.195 15.4931 106.339 15.7811C106.495 16.0571 106.621 16.4171 106.717 16.8611C106.825 17.2931 106.915 17.7551 106.987 18.2471C107.059 18.7391 107.137 19.2191 107.221 19.6871C107.305 20.1551 107.407 20.5631 107.527 20.9111C107.659 21.2591 107.821 21.5111 108.013 21.6671C108.205 21.8231 108.445 21.8291 108.733 21.6851C108.817 21.9491 108.829 22.1411 108.769 22.2611C108.709 22.3811 108.601 22.4471 108.445 22.4591C108.289 22.4711 108.109 22.4351 107.905 22.3511C107.713 22.2551 107.515 22.1291 107.311 21.9731C107.119 21.8171 106.945 21.6251 106.789 21.3971C106.633 21.1691 106.519 20.9291 106.447 20.6771C106.423 20.5091 106.393 20.2271 106.357 19.8311C106.321 19.4231 106.273 18.9911 106.213 18.5351C106.165 18.0791 106.075 17.6291 105.943 17.1851C105.823 16.7411 105.655 16.3871 105.439 16.1231L104.413 17.1131C104.389 17.1611 104.317 17.3411 104.197 17.6531C104.089 17.9531 103.969 18.3071 103.837 18.7151C103.705 19.1231 103.573 19.5371 103.441 19.9571C103.309 20.3651 103.219 20.6951 103.171 20.9471C103.147 21.0311 103.117 21.1931 103.081 21.4331C103.057 21.6611 103.027 21.9131 102.991 22.1891C102.967 22.4651 102.949 22.7231 102.937 22.9631C102.925 23.2031 102.919 23.3711 102.919 23.4671C102.835 23.6471 102.709 23.7371 102.541 23.7371C102.373 23.7371 102.247 23.6471 102.163 23.4671ZM111.544 23.4671C111.136 23.1431 110.812 22.7651 110.572 22.3331C110.344 21.9011 110.17 21.4391 110.05 20.9471C109.978 20.9951 109.882 21.0491 109.762 21.1091C109.654 21.1571 109.54 21.2051 109.42 21.2531C109.3 21.2891 109.18 21.3131 109.06 21.3251C108.94 21.3371 108.856 21.3251 108.808 21.2891C108.76 21.2531 108.742 21.1931 108.754 21.1091C108.778 21.0131 108.868 20.8691 109.024 20.6771C109.048 20.6531 109.108 20.5931 109.204 20.4971C109.312 20.3891 109.426 20.2811 109.546 20.1731C109.666 20.0531 109.774 19.9451 109.87 19.8491C109.966 19.7531 110.026 19.6931 110.05 19.6691C110.146 19.4171 110.206 19.1471 110.23 18.8591C110.254 18.5591 110.266 18.2531 110.266 17.9411C110.278 17.6291 110.296 17.3171 110.32 17.0051C110.356 16.6931 110.434 16.3991 110.554 16.1231C110.614 15.9791 110.734 15.7931 110.914 15.5651C111.106 15.3251 111.322 15.1031 111.562 14.8991C111.814 14.6831 112.06 14.4911 112.3 14.3231C112.54 14.1431 112.75 14.0351 112.93 13.9991C113.122 13.9631 113.26 14.0111 113.344 14.1431C113.428 14.2631 113.422 14.5031 113.326 14.8631C113.218 15.2831 113.056 15.6971 112.84 16.1051C112.624 16.5131 112.396 16.9151 112.156 17.3111C111.928 17.6951 111.712 18.0851 111.508 18.4811C111.304 18.8651 111.154 19.2611 111.058 19.6691C111.01 19.8851 110.986 20.1431 110.986 20.4431C110.986 20.7431 111.022 21.0431 111.094 21.3431C111.166 21.6431 111.274 21.9191 111.418 22.1711C111.574 22.4231 111.79 22.5971 112.066 22.6931C112.366 22.8131 112.672 22.8431 112.984 22.7831C113.308 22.7231 113.614 22.6091 113.902 22.4411C114.202 22.2731 114.484 22.0691 114.748 21.8291C115.024 21.5771 115.282 21.3191 115.522 21.0551C115.762 20.7911 115.972 20.5391 116.152 20.2991C116.332 20.0471 116.482 19.8371 116.602 19.6691L116.872 19.9211C116.932 19.9691 116.884 20.1311 116.728 20.4071C116.584 20.6831 116.368 20.9951 116.08 21.3431C115.792 21.6911 115.45 22.0451 115.054 22.4051C114.67 22.7531 114.274 23.0471 113.866 23.2871C113.458 23.5391 113.05 23.6951 112.642 23.7551C112.234 23.8151 111.868 23.7191 111.544 23.4671ZM111.058 17.1131C111.046 17.1731 111.04 17.2631 111.04 17.3831C111.04 17.5031 111.04 17.6291 111.04 17.7611C111.04 17.8931 111.04 18.0191 111.04 18.1391C111.04 18.2591 111.046 18.3431 111.058 18.3911C111.37 17.8511 111.658 17.2811 111.922 16.6811C112.198 16.0811 112.414 15.4751 112.57 14.8631C112.342 14.9351 112.138 15.0551 111.958 15.2231C111.778 15.3791 111.628 15.5651 111.508 15.7811C111.388 15.9851 111.286 16.2071 111.202 16.4471C111.13 16.6751 111.082 16.8971 111.058 17.1131ZM119.191 23.4671C118.783 23.1431 118.459 22.7651 118.219 22.3331C117.991 21.9011 117.817 21.4391 117.697 20.9471C117.625 20.9951 117.529 21.0491 117.409 21.1091C117.301 21.1571 117.187 21.2051 117.067 21.2531C116.947 21.2891 116.827 21.3131 116.707 21.3251C116.587 21.3371 116.503 21.3251 116.455 21.2891C116.407 21.2531 116.389 21.1931 116.401 21.1091C116.425 21.0131 116.515 20.8691 116.671 20.6771C116.695 20.6531 116.755 20.5931 116.851 20.4971C116.959 20.3891 117.073 20.2811 117.193 20.1731C117.313 20.0531 117.421 19.9451 117.517 19.8491C117.613 19.7531 117.673 19.6931 117.697 19.6691C117.793 19.4171 117.853 19.1471 117.877 18.8591C117.901 18.5591 117.913 18.2531 117.913 17.9411C117.925 17.6291 117.943 17.3171 117.967 17.0051C118.003 16.6931 118.081 16.3991 118.201 16.1231C118.261 15.9791 118.381 15.7931 118.561 15.5651C118.753 15.3251 118.969 15.1031 119.209 14.8991C119.461 14.6831 119.707 14.4911 119.947 14.3231C120.187 14.1431 120.397 14.0351 120.577 13.9991C120.769 13.9631 120.907 14.0111 120.991 14.1431C121.075 14.2631 121.069 14.5031 120.973 14.8631C120.865 15.2831 120.703 15.6971 120.487 16.1051C120.271 16.5131 120.043 16.9151 119.803 17.3111C119.575 17.6951 119.359 18.0851 119.155 18.4811C118.951 18.8651 118.801 19.2611 118.705 19.6691C118.657 19.8851 118.633 20.1431 118.633 20.4431C118.633 20.7431 118.669 21.0431 118.741 21.3431C118.813 21.6431 118.921 21.9191 119.065 22.1711C119.221 22.4231 119.437 22.5971 119.713 22.6931C120.013 22.8131 120.319 22.8431 120.631 22.7831C120.955 22.7231 121.261 22.6091 121.549 22.4411C121.849 22.2731 122.131 22.0691 122.395 21.8291C122.671 21.5771 122.929 21.3191 123.169 21.0551C123.409 20.7911 123.619 20.5391 123.799 20.2991C123.979 20.0471 124.129 19.8371 124.249 19.6691L124.519 19.9211C124.579 19.9691 124.531 20.1311 124.375 20.4071C124.231 20.6831 124.015 20.9951 123.727 21.3431C123.439 21.6911 123.097 22.0451 122.701 22.4051C122.317 22.7531 121.921 23.0471 121.513 23.2871C121.105 23.5391 120.697 23.6951 120.289 23.7551C119.881 23.8151 119.515 23.7191 119.191 23.4671ZM118.705 17.1131C118.693 17.1731 118.687 17.2631 118.687 17.3831C118.687 17.5031 118.687 17.6291 118.687 17.7611C118.687 17.8931 118.687 18.0191 118.687 18.1391C118.687 18.2591 118.693 18.3431 118.705 18.3911C119.017 17.8511 119.305 17.2811 119.569 16.6811C119.845 16.0811 120.061 15.4751 120.217 14.8631C119.989 14.9351 119.785 15.0551 119.605 15.2231C119.425 15.3791 119.275 15.5651 119.155 15.7811C119.035 15.9851 118.933 16.2071 118.849 16.4471C118.777 16.6751 118.729 16.8971 118.705 17.1131ZM125.253 17.2391V23.5571C125.109 23.8811 124.983 24.0431 124.875 24.0431C124.767 24.0551 124.671 23.9471 124.587 23.7191C124.515 23.5031 124.455 23.1911 124.407 22.7831C124.371 22.3871 124.347 21.9491 124.335 21.4691C124.323 20.9771 124.317 20.4671 124.317 19.9391C124.329 19.3991 124.347 18.8831 124.371 18.3911C124.395 17.8991 124.425 17.4491 124.461 17.0411C124.509 16.6211 124.551 16.2911 124.587 16.0511C124.635 15.8111 124.683 15.6791 124.731 15.6551C124.779 15.6311 124.827 15.7691 124.875 16.0691C125.187 15.8291 125.523 15.6071 125.883 15.4031C126.243 15.1871 126.615 15.0071 126.999 14.8631C127.383 14.7191 127.773 14.6291 128.169 14.5931C128.565 14.5571 128.943 14.5931 129.303 14.7011C129.351 14.8331 129.357 14.9831 129.321 15.1511C129.285 15.3071 129.195 15.4091 129.051 15.4571C128.895 15.4331 128.691 15.4211 128.439 15.4211C128.187 15.4211 127.917 15.4391 127.629 15.4751C127.353 15.5111 127.071 15.5711 126.783 15.6551C126.495 15.7391 126.237 15.8531 126.009 15.9971C125.793 16.1411 125.613 16.3151 125.469 16.5191C125.325 16.7111 125.253 16.9511 125.253 17.2391Z" fill="#CC56BE"/>
</g>
<defs>
<linearGradient id="paint0_linear_102_192" x1="39.2809" y1="7.75634" x2="8.25549" y2="7.75634" gradientUnits="userSpaceOnUse">
<stop stop-color="#CFE2FC"/>
<stop offset="1" stop-color="#CB37B0"/>
</linearGradient>
<linearGradient id="paint1_linear_102_192" x1="0.500001" y1="23.2681" x2="31.5254" y2="23.2681" gradientUnits="userSpaceOnUse">
<stop stop-color="#F8BCC6"/>
<stop offset="1" stop-color="#F83758"/>
</linearGradient>
<clipPath id="clip0_102_192">
<rect width="129.781" height="31.0263" fill="white" transform="translate(0.5)"/>
</clipPath>
</defs>
</svg>
